<svg xmlns="http://www.w3.org/2000/svg" width="41" height="41" viewBox="0 0 41 41" fill="none"><g clip-path="url(#clip0_127_1398)"><path d="M36.7045 13.7493V33.1215H3.73267V13.7493C3.73267 11.3536 5.67478 9.41147 8.07048 9.41147H32.3667C34.7624 9.41147 36.7045 11.3536 36.7045 13.7493Z" fill="white"></path><path d="M39.1391 33.4934V33.127H1.29834V33.4934C1.29834 35.2139 2.69303 36.6086 4.4135 36.6086H36.024C37.7444 36.6086 39.1391 35.2139 39.1391 33.4934Z" fill="#E9DECE"></path><path d="M27.5525 23.0466C31.6049 18.9942 31.6049 12.4239 27.5525 8.37146C23.5 4.31904 16.9298 4.31904 12.8773 8.37146C8.82493 12.4239 8.82493 18.9942 12.8774 23.0466C16.9298 27.099 23.5 27.099 27.5525 23.0466Z" fill="#E9DECE"></path><path d="M23.7978 16.7626L19.7582 19.5205C18.9112 20.0987 17.7626 19.4925 17.7621 18.4669L17.7593 12.9512C17.7587 11.9253 18.9076 11.318 19.7551 11.8962L23.7975 14.654C24.5401 15.1606 24.5402 16.2557 23.7978 16.7626Z" fill="white"></path><path d="M39.228 32.5114H37.4035V13.7513C37.4035 11.0221 35.1827 8.80133 32.4535 8.80133H31.4653C31.128 8.80133 30.855 9.0743 30.855 9.41164C30.855 9.74899 31.128 10.022 31.4653 10.022H32.4535C34.5098 10.022 36.1829 11.695 36.1829 13.7513V32.5114H4.43318V13.7513C4.43318 11.695 6.10592 10.022 8.16225 10.022H9.15107C9.48811 10.022 9.76139 9.74899 9.76139 9.41164C9.76139 9.0743 9.48811 8.80133 9.15107 8.80133H8.16225C5.43303 8.80133 3.21248 11.0221 3.21248 13.7513V32.5114H1.38717C1.05014 32.5114 0.776855 32.7844 0.776855 33.1217V33.4883C0.776855 35.5422 2.44811 37.2134 4.50232 37.2134H36.1131C38.167 37.2134 39.8383 35.5422 39.8383 33.4883V33.1217C39.8383 32.7844 39.5653 32.5114 39.228 32.5114ZM36.1131 35.9928H4.50232C3.20357 35.9928 2.13225 34.9992 2.00912 33.732C2.07061 33.732 41.074 33.7323 38.6057 33.732C38.483 34.9992 37.4119 35.9928 36.1131 35.9928Z" fill="#585D69"></path><path d="M20.3076 4.71968C14.2484 4.71968 9.31885 9.64945 9.31885 15.7087C9.31885 21.7679 14.2484 26.6971 20.3076 26.6971C26.3668 26.6971 31.2966 21.768 31.2966 15.7087C31.2966 9.64937 26.3668 4.71968 20.3076 4.71968ZM20.3076 25.4764C14.9216 25.4764 10.5396 21.0944 10.5396 15.7087C10.5396 10.3223 14.9216 5.94031 20.3076 5.94031C25.6939 5.94031 30.076 10.3223 30.076 15.7087C30.076 21.0944 25.6939 25.4764 20.3076 25.4764Z" fill="#585D69"></path><path d="M24.2307 14.1501L20.1881 11.3916C19.6087 10.9965 18.8628 10.9536 18.243 11.2826C17.6228 11.6104 17.2377 12.2499 17.238 12.9515L17.2407 18.4677C17.241 19.1687 17.6266 19.8076 18.2468 20.1348C18.8705 20.4631 19.6137 20.4183 20.1913 20.0246L24.2306 17.2668C24.7462 16.9151 25.0537 16.3322 25.0537 15.7087C25.0538 15.0846 24.7463 14.5017 24.2307 14.1501ZM23.5429 16.2582L19.503 19.016C19.2952 19.1566 19.0383 19.1722 18.8166 19.0554C18.5943 18.938 18.4614 18.718 18.4614 18.4671L18.4587 12.9509C18.4587 12.6993 18.5913 12.4788 18.8137 12.3614C19.0368 12.2442 19.293 12.2587 19.5003 12.4001L23.5429 15.1586C23.7276 15.2844 23.8331 15.4852 23.8331 15.7087C23.8332 15.9316 23.7276 16.1324 23.5429 16.2582Z" fill="#585D69"></path></g><defs><clipPath id="clip0_127_1398"><rect width="40" height="40" fill="white" transform="translate(0.307617 0.966553)"></rect></clipPath></defs></svg>