<svg xmlns="http://www.w3.org/2000/svg" width="41" height="41" viewBox="0 0 41 41" fill="none"><g clip-path="url(#clip0_127_1424)"><path d="M23.6475 8.58945V11.7H6.00934C5.12145 11.7 4.40051 12.4269 4.40051 13.3148V26.162H1.29004V10.1984C1.29004 9.31648 2.01105 8.58945 2.89887 8.58945H23.6475Z" fill="#FFEFEA"></path><path d="M39.4266 19.4643V34.552C39.4266 35.3982 38.7413 36.0834 37.9012 36.0834H31.5133L26.1922 39.033V36.0834H18.2788V32.4069H34.2246C35.0707 32.4069 35.7561 31.7276 35.7561 30.8814V19.4643H39.4266Z" fill="#E9DECE"></path><path d="M39.3758 18.9265H24.0412V8.50318C24.0412 8.25646 23.8411 8.0563 23.5944 8.0563H2.84896C1.71482 8.0563 0.79248 8.97865 0.79248 10.1125V26.0739C0.79248 26.3206 0.992637 26.5208 1.23936 26.5208H6.36951L10.6163 29.5549C10.7552 29.6544 10.9358 29.6634 11.0801 29.5886C11.229 29.5122 11.3227 29.3585 11.3227 29.1912V26.5208H17.7837V35.9933C17.7837 36.24 17.9839 36.4401 18.2306 36.4401H25.6954V38.9421C25.6954 39.1004 25.7793 39.2467 25.9154 39.327C26.0479 39.4054 26.2165 39.4116 26.3589 39.3331L31.5804 36.4401H37.8477C38.9365 36.4401 39.8227 35.5542 39.8227 34.4651V19.3734C39.8228 19.1267 39.6226 18.9265 39.3758 18.9265ZM10.8759 25.6269C10.6292 25.6269 10.429 25.8271 10.429 26.0738V28.3226L6.77225 25.7101C6.69662 25.656 6.60584 25.6269 6.51271 25.6269H1.68631V10.1125C1.68631 9.47146 2.20771 8.95013 2.84896 8.95013H23.1473V24.4579C23.1473 25.1026 22.623 25.6269 21.9783 25.6269H10.8759ZM38.929 34.4651C38.929 35.0613 38.4442 35.5463 37.8478 35.5463H31.4647C31.3891 35.5463 31.3146 35.5655 31.2483 35.6022L26.5894 38.1836V35.9933C26.5894 35.7465 26.3893 35.5464 26.1426 35.5464H18.6777V26.5208H21.9783C23.116 26.5208 24.0412 25.5952 24.0412 24.4579V19.8203H38.929V34.4651Z" fill="#585D69"></path><path d="M27.4333 4.73296C27.2587 4.55835 26.9759 4.55835 26.8013 4.73296L25.5758 5.95874C25.4012 6.13335 25.4012 6.41617 25.5758 6.5907C25.7504 6.76531 26.0331 6.76531 26.2077 6.5907L27.4333 5.36492C27.6079 5.19038 27.6079 4.90757 27.4333 4.73296Z" fill="#585D69"></path><path d="M23.8945 2.991V4.72452C23.8945 4.97124 24.0947 5.17139 24.3414 5.17139C24.5881 5.17139 24.7883 4.97124 24.7883 4.72452V2.991C24.7883 2.74428 24.5881 2.54413 24.3414 2.54413C24.0947 2.54413 23.8945 2.74428 23.8945 2.991Z" fill="#585D69"></path><path d="M27.442 8.27217H29.1755C29.4222 8.27217 29.6224 8.07201 29.6224 7.82529C29.6224 7.57857 29.4222 7.37842 29.1755 7.37842H27.442C27.1953 7.37842 26.9951 7.57857 26.9951 7.82529C26.995 8.07201 27.1953 8.27217 27.442 8.27217Z" fill="#585D69"></path><path d="M26.1669 24.9921H29.9867C29.9254 25.942 29.6714 26.8848 29.2824 27.7294C29.0993 27.3956 28.9249 27.0537 28.764 26.7003C28.6615 26.4754 28.395 26.3777 28.1722 26.4786C27.9475 26.5807 27.848 26.8458 27.9504 27.0704C28.2004 27.6192 28.4833 28.1398 28.7836 28.6437C28.1669 29.6034 27.3653 30.3443 26.4875 30.6652C26.2558 30.7501 26.1366 31.0067 26.2215 31.2384C26.3063 31.4699 26.5618 31.5892 26.7947 31.5048C27.7509 31.1552 28.6181 30.4193 29.3083 29.4628C29.6242 29.9228 29.9551 30.3672 30.3142 30.7792C30.4767 30.9657 30.759 30.9844 30.945 30.8226C31.1306 30.6605 31.1504 30.3783 30.988 30.1921C30.5693 29.7115 30.183 29.1916 29.8267 28.6409C30.4234 27.5555 30.8075 26.2853 30.8805 24.9921H31.6834C31.9301 24.9921 32.1303 24.792 32.1303 24.5452C32.1303 24.2985 31.9301 24.0984 31.6834 24.0984H26.1668C25.9201 24.0984 25.72 24.2985 25.72 24.5452C25.72 24.792 25.9202 24.9921 26.1669 24.9921Z" fill="#585D69"></path><path d="M12.8434 13.242C12.7846 13.0558 12.6124 12.929 12.4168 12.929C12.2213 12.929 12.0491 13.0559 11.9902 13.242L9.79822 20.2283C9.72431 20.464 9.85525 20.7148 10.091 20.7887C10.3259 20.8619 10.5772 20.732 10.6513 20.4959L11.0418 19.2515H13.7915L14.1818 20.4959C14.2557 20.731 14.5036 20.8626 14.7422 20.7887C14.9779 20.7148 15.1088 20.464 15.0349 20.2283L12.8434 13.242ZM11.3221 18.3577L12.4168 14.8688L13.5111 18.3577H11.3221Z" fill="#585D69"></path></g><defs><clipPath id="clip0_127_1424"><rect width="40" height="40" fill="white" transform="translate(0.307617 0.966553)"></rect></clipPath></defs></svg>