<svg xmlns="http://www.w3.org/2000/svg" width="41" height="41" viewBox="0 0 41 41" fill="none"><g clip-path="url(#clip0_127_1436)"><path d="M23.8227 27.3659C29.6079 27.3659 34.2978 32.348 34.2978 38.4937V39.887H6.31763V38.4937C6.31763 32.348 11.0075 27.3659 16.7927 27.3659L20.3077 33.6265L23.8227 27.3659Z" fill="white"></path><path d="M27.8582 17.6125C27.8582 21.8928 24.3903 25.3607 20.11 25.3607C15.8297 25.3607 12.3618 21.8927 12.3618 17.6125C12.3618 13.3409 15.8297 9.87304 20.11 9.87304C24.3903 9.87304 27.8582 13.3409 27.8582 17.6125Z" fill="white"></path><path d="M28.1902 9.57593V14.8783C28.1902 15.9876 27.2818 16.9485 26.0239 17.1669C22.0056 17.8658 17.9874 17.8658 13.9691 17.1669C12.7112 16.9486 11.8027 15.9877 11.8027 14.8783V9.57593H28.1902Z" fill="#E9DECE"></path><path d="M31.798 7.76773L19.9966 12.5373L8.19507 7.76773L19.9966 2.04609L31.798 7.76773Z" fill="#E9DECE"></path><path d="M31.5988 12.8544L33.4021 16.0288H30.1853L31.5988 12.8544Z" fill="white"></path><path d="M5.70728 38.4939V39.8871C5.70728 40.2241 5.98056 40.4974 6.31759 40.4974H34.2977C34.6348 40.4974 34.9081 40.2241 34.9081 39.8871V38.4939C34.9081 32.2394 30.2612 27.1269 24.4331 26.7884V24.7525C26.8472 23.2852 28.4685 20.638 28.4685 17.6124C28.4685 17.1783 28.4299 16.7537 28.3641 16.338C28.6427 15.9047 28.8005 15.4048 28.8005 14.8784V9.63749L30.9885 8.7532V12.7247L29.6278 15.7805C29.4484 16.1834 29.7437 16.6391 30.1854 16.6391H33.4022C33.868 16.6391 34.1645 16.135 33.933 15.7272L32.2092 12.6931V8.21241C32.5356 7.91015 32.4416 7.40132 32.0641 7.21859L20.2627 1.49695C20.0946 1.4153 19.8985 1.4153 19.7304 1.49695L7.92899 7.21851C7.45431 7.44835 7.47595 8.13507 7.96657 8.33366L11.1923 9.63734V14.8784C11.1923 15.5107 11.4289 16.0986 11.8202 16.5851C11.7761 16.9216 11.7513 17.2639 11.7513 17.6124C11.7513 20.8019 13.5485 23.5777 16.1823 24.9862V26.7883C10.3541 27.1269 5.70728 32.2394 5.70728 38.4939ZM33.6874 38.4939V39.2768H6.9279V38.4939C6.9279 32.8205 11.1624 28.1819 16.4391 27.9829L19.7754 33.9253C19.9917 34.3098 20.6235 34.3098 20.8399 33.9253L24.1763 27.9829C29.4529 28.1819 33.6874 32.8205 33.6874 38.4939ZM32.3535 15.4184H31.1254L31.6651 14.2064L32.3535 15.4184ZM19.9966 2.72445L30.2945 7.7171L19.9966 11.8789L9.6986 7.7171L19.9966 2.72445ZM19.768 13.1032C19.915 13.1623 20.0779 13.1624 20.2252 13.1032C21.7102 12.5142 16.409 14.6167 27.5799 10.1862V14.8785C27.5799 15.6891 26.8817 16.3987 25.9194 16.5656C21.9892 17.2493 18.0038 17.2493 14.0735 16.5656C13.1115 16.3984 12.413 15.6891 12.413 14.8785V10.1862C23.5843 14.6167 18.2828 12.5141 19.768 13.1032ZM12.9783 17.4816C15.5359 18.6701 25.3227 18.4398 27.2377 17.376C27.3822 21.4604 24.0823 24.7502 20.1101 24.7502C16.1106 24.7502 12.8908 21.4477 12.9783 17.4816ZM23.2124 25.3673V27.2061L20.3077 32.3798L17.4029 27.2061V25.5123C19.3432 26.1792 21.3667 26.1084 23.2124 25.3673Z" fill="#585D69"></path></g><defs><clipPath id="clip0_127_1436"><rect width="40" height="40" fill="white" transform="translate(0.307617 0.966553)"></rect></clipPath></defs></svg>